<svg width="24" height="24" viewBox="0 0 24 24" fill="none" xmlns="http://www.w3.org/2000/svg">
<path d="M10.9959 4.68V8.56C10.9959 8.88127 10.9324 9.19938 10.8092 9.49606C10.686 9.79275 10.5053 10.0622 10.2777 10.2889C10.0501 10.5156 9.7799 10.6951 9.48271 10.8171C9.18552 10.9392 8.86715 11.0013 8.54589 11H4.68589C4.36549 11.0019 4.048 10.9392 3.75244 10.8155C3.45689 10.6917 3.18936 10.5096 2.96589 10.28C2.73945 10.0547 2.56008 9.78657 2.43819 9.49129C2.3163 9.19601 2.25433 8.87944 2.25589 8.56V4.69C2.25588 4.0446 2.51158 3.42549 2.96701 2.96819C3.42244 2.51088 4.04049 2.25265 4.68589 2.25H8.55589C8.87595 2.25031 9.19278 2.3141 9.48802 2.43769C9.78326 2.56128 10.051 2.74221 10.2759 2.97C10.5038 3.19264 10.6849 3.45862 10.8086 3.75228C10.9322 4.04594 10.9959 4.36137 10.9959 4.68ZM21.7459 4.69V8.56C21.7407 9.2038 21.4833 9.81991 21.029 10.2761C20.5747 10.7323 19.9597 10.9922 19.3159 11H15.4359C14.7891 10.996 14.169 10.7416 13.7059 10.29C13.4796 10.0625 13.3004 9.79258 13.1786 9.49572C13.0567 9.19886 12.9947 8.88088 12.9959 8.56V4.69C12.9945 4.36969 13.0575 4.05236 13.1812 3.75689C13.3049 3.46141 13.4867 3.19382 13.7159 2.97C13.9407 2.74221 14.2085 2.56128 14.5038 2.43769C14.799 2.3141 15.1158 2.25031 15.4359 2.25H19.3059C19.9514 2.25523 20.569 2.51398 21.0254 2.97044C21.4819 3.4269 21.7407 4.04449 21.7459 4.69ZM21.7459 15.44V19.31C21.7407 19.9538 21.4833 20.5699 21.029 21.0261C20.5747 21.4823 19.9597 21.7422 19.3159 21.75H15.4359C14.785 21.7566 14.1571 21.5091 13.6859 21.06C13.4587 20.8331 13.2789 20.5634 13.157 20.2664C13.0351 19.9693 12.9736 19.651 12.9759 19.33V15.46C12.9746 15.1397 13.0376 14.8224 13.1613 14.5269C13.285 14.2315 13.4668 13.9639 13.6959 13.74C13.9208 13.5123 14.1886 13.3314 14.4838 13.2078C14.779 13.0842 15.0958 13.0204 15.4159 13.02H19.2859C19.9314 13.0252 20.549 13.284 21.0054 13.7404C21.4619 14.1969 21.7207 14.8145 21.7259 15.46L21.7459 15.44ZM10.9959 15.45V19.32C10.988 19.9655 10.7267 20.582 10.2684 21.0366C9.81008 21.4912 9.19142 21.7474 8.54589 21.75H4.68589C4.36641 21.7513 4.04982 21.6894 3.7544 21.5677C3.45899 21.4461 3.19058 21.2671 2.96467 21.0412C2.73876 20.8153 2.55982 20.5469 2.43817 20.2515C2.31652 19.9561 2.25456 19.6395 2.25589 19.32V15.45C2.25846 14.8045 2.51468 14.1858 2.96927 13.7275C3.42386 13.2691 4.0404 13.0079 4.68589 13H8.55589C9.20431 13.0056 9.82497 13.2639 10.2859 13.72C10.742 14.1801 10.9973 14.8021 10.9959 15.45Z" fill="#3C77FB"/>
</svg>
