<svg width="394" height="394" viewBox="0 0 394 394" fill="none" xmlns="http://www.w3.org/2000/svg">
<rect x="190.641" y="31.0532" width="12.2724" height="30.681" rx="6.13619" fill="#86B5CF"/>
<rect x="362.455" y="190.595" width="12.2724" height="30.681" rx="6.13619" transform="rotate(90 362.455 190.595)" fill="#C3179D"/>
<rect x="190.641" y="331.727" width="12.2724" height="30.681" rx="6.13619" fill="#86B5CF"/>
<rect x="61.7812" y="190.595" width="12.2724" height="30.681" rx="6.13619" transform="rotate(90 61.7812 190.595)" fill="#C3179D"/>
<rect x="75.2852" y="83.917" width="12.2724" height="30.681" rx="6.13619" transform="rotate(-45 75.2852 83.917)" fill="#3C77FB"/>
<rect x="83.9648" y="318.22" width="12.2724" height="30.681" rx="6.13619" transform="rotate(-135 83.9648 318.22)" fill="#6E93E6"/>
<rect x="287.895" y="296.525" width="12.2724" height="30.681" rx="6.13619" transform="rotate(-45 287.895 296.525)" fill="#3C77FB"/>
<rect x="296.572" y="105.615" width="12.2724" height="30.681" rx="6.13619" transform="rotate(-135 296.572 105.615)" fill="#6E93E6"/>
<circle cx="196.776" cy="196.73" r="74.1493" fill="#3C77FB"/>
<path d="M155.582 195.502L183.852 224.193L237.97 169.268" stroke="white" stroke-width="8.23881" stroke-linecap="round" stroke-linejoin="round"/>
</svg>
