<svg width="54" height="44" viewBox="0 0 54 44" fill="none" xmlns="http://www.w3.org/2000/svg">
<path d="M11.0007 43.3334C8.06732 43.3334 5.55621 42.2889 3.46732 40.2C1.37843 38.1111 0.333984 35.6 0.333984 32.6667V11.3334C0.333984 8.40002 1.37843 5.88891 3.46732 3.80002C5.55621 1.71113 8.06732 0.666687 11.0007 0.666687H43.0006C45.934 0.666687 48.4451 1.71113 50.534 3.80002C52.6229 5.88891 53.6673 8.40002 53.6673 11.3334V32.6667C53.6673 35.6 52.6229 38.1111 50.534 40.2C48.4451 42.2889 45.934 43.3334 43.0006 43.3334H11.0007ZM11.0007 11.3334H43.0006C43.9784 11.3334 44.9118 11.4445 45.8006 11.6667C46.6895 11.8889 47.534 12.2445 48.334 12.7334V11.3334C48.334 9.86669 47.8122 8.61158 46.7687 7.56802C45.7251 6.52446 44.4691 6.0018 43.0006 6.00002H11.0007C9.53398 6.00002 8.27887 6.52269 7.23532 7.56802C6.19176 8.61335 5.6691 9.86847 5.66732 11.3334V12.7334C6.46732 12.2445 7.31176 11.8889 8.20065 11.6667C9.08954 11.4445 10.0229 11.3334 11.0007 11.3334ZM6.06732 20L35.734 27.2C36.134 27.2889 36.534 27.2889 36.934 27.2C37.334 27.1111 37.7118 26.9334 38.0673 26.6667L47.334 18.9334C46.8451 18.2667 46.2229 17.7227 45.4673 17.3014C44.7118 16.88 43.8895 16.6685 43.0006 16.6667H11.0007C9.84509 16.6667 8.83443 16.9671 7.96865 17.568C7.10287 18.1689 6.4691 18.9796 6.06732 20Z" fill="url(#paint0_linear_289_106)"/>
<defs>
<linearGradient id="paint0_linear_289_106" x1="27.0007" y1="8.66669" x2="47.6673" y2="48.6667" gradientUnits="userSpaceOnUse">
<stop stop-color="#3C77FB"/>
<stop offset="1" stop-color="#9AADD7"/>
</linearGradient>
</defs>
</svg>
